<?xml version="1.0" encoding="iso-8859-1"?>
<!-- Generator: Adobe Illustrator 19.0.0, SVG Export Plug-In . SVG Version: 6.00 Build 0)  -->
<svg xmlns="http://www.w3.org/2000/svg" xmlns:xlink="http://www.w3.org/1999/xlink" version="1.1" id="Layer_1" x="0px" y="0px" viewBox="0 0 490 490" style="enable-background:new 0 0 490 490;" xml:space="preserve" width="512px" height="512px">
<g>
	<g id="XMLID_54_">
		<g>
			<g>
				<path d="M245,240c-55.14,0-100-44.859-100-100S189.86,40,245,40s100,44.859,100,100S300.14,240,245,240z       M245,60c-44.112,0-80,35.888-80,80s35.888,80,80,80s80-35.888,80-80S289.112,60,245,60z" fill="#b09471"/>
			</g>
			<g>
				<path d="M277.929,192.071l-40-40C236.054,150.195,235,147.652,235,145V80h20v60.857l37.071,37.071      L277.929,192.071z" fill="#b09471"/>
			</g>
			<path d="M480,390h-55v-55c0-5.522-4.477-10-10-10H255v-45.361c72.546-5.145,130-65.805,130-139.639     C385,62.804,322.196,0,245,0S105,62.804,105,140c0,73.834,57.454,134.494,130,139.639V325H70c-5.523,0-10,4.478-10,10v55H10     c-5.523,0-10,4.478-10,10v80c0,5.522,4.477,10,10,10h130c5.523,0,10-4.478,10-10v-80c0-5.522-4.477-10-10-10H80v-45h155v45h-55     c-5.523,0-10,4.478-10,10v80c0,5.522,4.477,10,10,10h130c5.523,0,10-4.478,10-10v-80c0-5.522-4.477-10-10-10h-55v-45h150v45h-55     c-5.523,0-10,4.478-10,10v80c0,5.522,4.477,10,10,10h130c5.523,0,10-4.478,10-10v-80C490,394.478,485.523,390,480,390z M130,470     H20v-60h110V470z M300,470H190v-60h110V470z M125,140c0-66.168,53.831-120,120-120s120,53.832,120,120s-53.832,120-120,120     S125,206.168,125,140z M470,470H360v-60h110V470z" fill="#b09471"/>
			<g>
				<rect x="35" y="430" width="30" height="20" fill="#b09471"/>
			</g>
			<g>
				<rect x="80" y="430" width="35" height="20" fill="#b09471"/>
			</g>
			<g>
				<rect x="205" y="430" width="30" height="20" fill="#b09471"/>
			</g>
			<g>
				<rect x="250" y="430" width="35" height="20" fill="#b09471"/>
			</g>
			<g>
				<rect x="375" y="430" width="30" height="20" fill="#b09471"/>
			</g>
			<g>
				<rect x="420" y="430" width="35" height="20" fill="#b09471"/>
			</g>
			<g>
				<rect x="290" y="130" width="20" height="20" fill="#b09471"/>
			</g>
			<g>
				<rect x="180" y="130" width="20" height="20" fill="#b09471"/>
			</g>
		</g>
	</g>
</g>
<g>
</g>
<g>
</g>
<g>
</g>
<g>
</g>
<g>
</g>
<g>
</g>
<g>
</g>
<g>
</g>
<g>
</g>
<g>
</g>
<g>
</g>
<g>
</g>
<g>
</g>
<g>
</g>
<g>
</g>
</svg>
